<mxfile host="65bd71144e">
    <diagram id="HOQ16arEbGDelKbI-B8D" name="Page-1">
        <mxGraphModel dx="1444" dy="790" grid="1" gridSize="10" guides="1" tooltips="1" connect="1" arrows="1" fold="1" page="1" pageScale="1" pageWidth="850" pageHeight="1100" math="0" shadow="0">
            <root>
                <mxCell id="0"/>
                <mxCell id="1" parent="0"/>
                <mxCell id="2" value="Logo" style="rounded=0;whiteSpace=wrap;html=1;" parent="1" vertex="1">
                    <mxGeometry x="80" y="20" width="120" height="60" as="geometry"/>
                </mxCell>
                <mxCell id="3" value="" style="strokeWidth=1;shadow=0;dashed=0;align=center;html=1;shape=mxgraph.mockup.rrect;rSize=10;fillColor=#ffffff;strokeColor=#666666;" parent="1" vertex="1">
                    <mxGeometry x="240" y="20" width="370" height="60" as="geometry"/>
                </mxCell>
                <mxCell id="4" value="Department" style="strokeColor=inherit;fillColor=inherit;gradientColor=#008cff;strokeWidth=1;shadow=0;dashed=0;align=center;html=1;shape=mxgraph.mockup.rrect;rSize=0;fontSize=17;fontColor=#ffffff;fontStyle=1;resizeHeight=1;" parent="3" vertex="1">
                    <mxGeometry width="125" height="60" relative="1" as="geometry">
                        <mxPoint x="125" as="offset"/>
                    </mxGeometry>
                </mxCell>
                <mxCell id="6" value="Payroll" style="strokeColor=inherit;fillColor=inherit;gradientColor=inherit;strokeWidth=1;shadow=0;dashed=0;align=center;html=1;shape=mxgraph.mockup.rightButton;rSize=10;fontSize=17;fontColor=#666666;fontStyle=1;resizeHeight=1;" parent="3" vertex="1">
                    <mxGeometry x="1" width="125" height="60" relative="1" as="geometry">
                        <mxPoint x="-125" as="offset"/>
                    </mxGeometry>
                </mxCell>
                <mxCell id="7" value="Home" style="strokeWidth=1;shadow=0;dashed=0;align=center;html=1;shape=mxgraph.mockup.leftButton;rSize=10;fontSize=17;fontColor=#666666;fontStyle=1;fillColor=#ffffff;strokeColor=#008cff;resizeHeight=1;" parent="3" vertex="1">
                    <mxGeometry width="125" height="60" relative="1" as="geometry"/>
                </mxCell>
                <mxCell id="9" value="" style="endArrow=classic;html=1;exitX=0.6;exitY=1;exitDx=0;exitDy=0;exitPerimeter=0;" parent="1" source="4" edge="1">
                    <mxGeometry width="50" height="50" relative="1" as="geometry">
                        <mxPoint x="330" y="340" as="sourcePoint"/>
                        <mxPoint x="440" y="200" as="targetPoint"/>
                    </mxGeometry>
                </mxCell>
                <mxCell id="10" value="" style="endArrow=none;html=1;" parent="1" edge="1">
                    <mxGeometry width="50" height="50" relative="1" as="geometry">
                        <mxPoint x="80" y="200" as="sourcePoint"/>
                        <mxPoint x="760" y="200" as="targetPoint"/>
                    </mxGeometry>
                </mxCell>
                <mxCell id="17" value="" style="endArrow=classic;html=1;startArrow=none;" parent="1" source="25" edge="1">
                    <mxGeometry width="50" height="50" relative="1" as="geometry">
                        <mxPoint x="79" y="200" as="sourcePoint"/>
                        <mxPoint x="79" y="280" as="targetPoint"/>
                    </mxGeometry>
                </mxCell>
                <mxCell id="18" value="" style="endArrow=classic;html=1;" parent="1" edge="1">
                    <mxGeometry width="50" height="50" relative="1" as="geometry">
                        <mxPoint x="440" y="200" as="sourcePoint"/>
                        <mxPoint x="440" y="280" as="targetPoint"/>
                    </mxGeometry>
                </mxCell>
                <mxCell id="19" value="" style="endArrow=classic;html=1;" parent="1" edge="1">
                    <mxGeometry width="50" height="50" relative="1" as="geometry">
                        <mxPoint x="610" y="200" as="sourcePoint"/>
                        <mxPoint x="610" y="280" as="targetPoint"/>
                    </mxGeometry>
                </mxCell>
                <mxCell id="21" value="" style="endArrow=classic;html=1;" parent="1" edge="1">
                    <mxGeometry width="50" height="50" relative="1" as="geometry">
                        <mxPoint x="760" y="200" as="sourcePoint"/>
                        <mxPoint x="760" y="280" as="targetPoint"/>
                    </mxGeometry>
                </mxCell>
                <mxCell id="23" value="" style="endArrow=classic;html=1;" parent="1" edge="1">
                    <mxGeometry width="50" height="50" relative="1" as="geometry">
                        <mxPoint x="260" y="200" as="sourcePoint"/>
                        <mxPoint x="260" y="280" as="targetPoint"/>
                    </mxGeometry>
                </mxCell>
                <mxCell id="25" value="" style="swimlane;startSize=0;" parent="1" vertex="1">
                    <mxGeometry x="30" y="280" width="90" height="160" as="geometry"/>
                </mxCell>
                <mxCell id="34" value="SALE" style="text;html=1;align=center;verticalAlign=middle;resizable=0;points=[];autosize=1;strokeColor=none;fillColor=none;" parent="25" vertex="1">
                    <mxGeometry x="20" y="70" width="50" height="20" as="geometry"/>
                </mxCell>
                <mxCell id="26" value="" style="endArrow=none;html=1;" parent="1" edge="1">
                    <mxGeometry width="50" height="50" relative="1" as="geometry">
                        <mxPoint x="79" y="200" as="sourcePoint"/>
                        <mxPoint x="79" y="280" as="targetPoint"/>
                    </mxGeometry>
                </mxCell>
                <mxCell id="27" value="" style="swimlane;startSize=0;" parent="1" vertex="1">
                    <mxGeometry x="380" y="280" width="110" height="160" as="geometry"/>
                </mxCell>
                <mxCell id="36" value="HR" style="text;html=1;align=center;verticalAlign=middle;resizable=0;points=[];autosize=1;strokeColor=none;fillColor=none;" parent="27" vertex="1">
                    <mxGeometry x="40" y="70" width="30" height="20" as="geometry"/>
                </mxCell>
                <mxCell id="28" value="" style="swimlane;startSize=0;" parent="1" vertex="1">
                    <mxGeometry x="710" y="280" width="100" height="160" as="geometry"/>
                </mxCell>
                <mxCell id="39" value="FINANCE" style="text;html=1;align=center;verticalAlign=middle;resizable=0;points=[];autosize=1;strokeColor=none;fillColor=none;" parent="28" vertex="1">
                    <mxGeometry x="20" y="70" width="70" height="20" as="geometry"/>
                </mxCell>
                <mxCell id="30" value="" style="swimlane;startSize=0;" parent="1" vertex="1">
                    <mxGeometry x="550" y="280" width="120" height="160" as="geometry"/>
                </mxCell>
                <mxCell id="37" value="IT" style="text;html=1;align=center;verticalAlign=middle;resizable=0;points=[];autosize=1;strokeColor=none;fillColor=none;" parent="30" vertex="1">
                    <mxGeometry x="45" y="70" width="30" height="20" as="geometry"/>
                </mxCell>
                <mxCell id="32" value="" style="swimlane;startSize=0;" parent="1" vertex="1">
                    <mxGeometry x="190" y="280" width="110" height="160" as="geometry"/>
                </mxCell>
                <mxCell id="41" value="MARKETING" style="text;html=1;align=center;verticalAlign=middle;resizable=0;points=[];autosize=1;strokeColor=none;fillColor=none;" parent="32" vertex="1">
                    <mxGeometry x="10" y="70" width="90" height="20" as="geometry"/>
                </mxCell>
                <mxCell id="50" value="" style="swimlane;startSize=0;fontFamily=Helvetica;fontSize=12;fontColor=default;fillColor=none;gradientColor=none;html=1;" parent="1" vertex="1">
                    <mxGeometry x="40" y="520" width="240" height="200" as="geometry"/>
                </mxCell>
                <mxCell id="53" value="About Us" style="text;strokeColor=none;fillColor=none;html=1;fontSize=24;fontStyle=1;verticalAlign=middle;align=center;fontFamily=Helvetica;fontColor=default;" parent="50" vertex="1">
                    <mxGeometry x="60" y="80" width="100" height="40" as="geometry"/>
                </mxCell>
                <mxCell id="51" value="" style="swimlane;startSize=0;fontFamily=Helvetica;fontSize=12;fontColor=default;fillColor=none;gradientColor=none;html=1;" parent="1" vertex="1">
                    <mxGeometry x="320" y="520" width="480" height="200" as="geometry"/>
                </mxCell>
                <mxCell id="58" value="" style="edgeStyle=none;html=1;fontFamily=Helvetica;fontSize=12;fontColor=default;" parent="51" source="54" target="57" edge="1">
                    <mxGeometry relative="1" as="geometry"/>
                </mxCell>
                <mxCell id="60" value="" style="edgeStyle=none;html=1;fontFamily=Helvetica;fontSize=12;fontColor=default;" parent="51" source="54" target="59" edge="1">
                    <mxGeometry relative="1" as="geometry"/>
                </mxCell>
                <mxCell id="61" value="" style="edgeStyle=none;html=1;fontFamily=Helvetica;fontSize=12;fontColor=default;" parent="51" source="54" target="59" edge="1">
                    <mxGeometry relative="1" as="geometry"/>
                </mxCell>
                <mxCell id="54" value="Contact Social" style="text;strokeColor=none;fillColor=none;html=1;fontSize=24;fontStyle=1;verticalAlign=middle;align=center;fontFamily=Helvetica;fontColor=default;" parent="51" vertex="1">
                    <mxGeometry x="210" width="100" height="40" as="geometry"/>
                </mxCell>
                <mxCell id="55" value="facebook" style="text;strokeColor=none;fillColor=none;html=1;fontSize=12;fontStyle=1;verticalAlign=middle;align=center;fontFamily=Helvetica;fontColor=default;" parent="51" vertex="1">
                    <mxGeometry x="100" y="100" width="50" height="40" as="geometry"/>
                </mxCell>
                <mxCell id="56" value="" style="edgeStyle=none;html=1;fontFamily=Helvetica;fontSize=12;fontColor=default;" parent="51" source="54" target="55" edge="1">
                    <mxGeometry relative="1" as="geometry"/>
                </mxCell>
                <mxCell id="57" value="insta" style="text;strokeColor=none;fillColor=none;html=1;fontSize=12;fontStyle=1;verticalAlign=middle;align=center;fontFamily=Helvetica;fontColor=default;" parent="51" vertex="1">
                    <mxGeometry x="190" y="100" width="40" height="40" as="geometry"/>
                </mxCell>
                <mxCell id="59" value="youtube" style="text;strokeColor=none;fillColor=none;html=1;fontSize=12;fontStyle=1;verticalAlign=middle;align=center;fontFamily=Helvetica;fontColor=default;" parent="51" vertex="1">
                    <mxGeometry x="340" y="100" width="50" height="40" as="geometry"/>
                </mxCell>
                <mxCell id="64" value="google" style="text;strokeColor=none;fillColor=none;html=1;fontSize=12;fontStyle=1;verticalAlign=middle;align=center;fontFamily=Helvetica;fontColor=default;" parent="51" vertex="1">
                    <mxGeometry x="30" y="100" width="40" height="40" as="geometry"/>
                </mxCell>
                <mxCell id="65" value="" style="edgeStyle=none;html=1;fontFamily=Helvetica;fontSize=12;fontColor=default;" parent="51" source="54" target="64" edge="1">
                    <mxGeometry relative="1" as="geometry"/>
                </mxCell>
                <mxCell id="67" value="twitter" style="text;strokeColor=none;fillColor=none;html=1;fontSize=12;fontStyle=1;verticalAlign=middle;align=center;fontFamily=Helvetica;fontColor=default;" parent="51" vertex="1">
                    <mxGeometry x="250" y="100" width="70" height="40" as="geometry"/>
                </mxCell>
                <mxCell id="68" value="" style="edgeStyle=none;html=1;fontFamily=Helvetica;fontSize=12;fontColor=default;" parent="51" source="54" target="67" edge="1">
                    <mxGeometry relative="1" as="geometry"/>
                </mxCell>
                <mxCell id="69" value="mail" style="text;strokeColor=none;fillColor=none;html=1;fontSize=12;fontStyle=1;verticalAlign=middle;align=center;fontFamily=Helvetica;fontColor=default;" parent="51" vertex="1">
                    <mxGeometry x="410" y="100" width="50" height="40" as="geometry"/>
                </mxCell>
                <mxCell id="70" value="" style="edgeStyle=none;html=1;fontFamily=Helvetica;fontSize=12;fontColor=default;" parent="51" source="54" target="69" edge="1">
                    <mxGeometry relative="1" as="geometry"/>
                </mxCell>
            </root>
        </mxGraphModel>
    </diagram>
</mxfile>